<mxfile host="app.diagrams.net" modified="2023-08-16T16:17:07.603Z" agent="Mozilla/5.0 (Macintosh; Intel Mac OS X 10_15_7) AppleWebKit/537.36 (KHTML, like Gecko) Chrome/115.0.0.0 Safari/537.36 Edg/115.0.1901.203" etag="8MAbsDoX8JKwSLQ5zqo0" version="21.6.2" type="github">
  <diagram name="Page-1" id="zKxnm1Zu4b5OU08ozf7c">
    <mxGraphModel dx="1116" dy="943" grid="1" gridSize="10" guides="1" tooltips="1" connect="1" arrows="1" fold="1" page="1" pageScale="1" pageWidth="850" pageHeight="1100" math="0" shadow="0">
      <root>
        <mxCell id="0" />
        <mxCell id="1" parent="0" />
        <mxCell id="YsSx6Xcz3rXyTNoQ9fx8-36" style="edgeStyle=orthogonalEdgeStyle;rounded=0;orthogonalLoop=1;jettySize=auto;html=1;" edge="1" parent="1" source="YsSx6Xcz3rXyTNoQ9fx8-28" target="YsSx6Xcz3rXyTNoQ9fx8-11">
          <mxGeometry relative="1" as="geometry">
            <mxPoint x="570" y="610" as="targetPoint" />
            <Array as="points">
              <mxPoint x="950" y="395" />
              <mxPoint x="950" y="600" />
            </Array>
          </mxGeometry>
        </mxCell>
        <mxCell id="YsSx6Xcz3rXyTNoQ9fx8-28" value="" style="rounded=0;whiteSpace=wrap;html=1;" vertex="1" parent="1">
          <mxGeometry x="493" y="320" width="372" height="150" as="geometry" />
        </mxCell>
        <mxCell id="YsSx6Xcz3rXyTNoQ9fx8-35" style="edgeStyle=orthogonalEdgeStyle;rounded=0;orthogonalLoop=1;jettySize=auto;html=1;entryX=0.995;entryY=0.588;entryDx=0;entryDy=0;entryPerimeter=0;" edge="1" parent="1" source="YsSx6Xcz3rXyTNoQ9fx8-27" target="YsSx6Xcz3rXyTNoQ9fx8-11">
          <mxGeometry relative="1" as="geometry">
            <Array as="points">
              <mxPoint x="970" y="205" />
              <mxPoint x="970" y="624" />
            </Array>
          </mxGeometry>
        </mxCell>
        <mxCell id="YsSx6Xcz3rXyTNoQ9fx8-27" value="" style="rounded=0;whiteSpace=wrap;html=1;" vertex="1" parent="1">
          <mxGeometry x="493" y="130" width="372" height="150" as="geometry" />
        </mxCell>
        <mxCell id="YsSx6Xcz3rXyTNoQ9fx8-14" style="edgeStyle=orthogonalEdgeStyle;rounded=0;orthogonalLoop=1;jettySize=auto;html=1;entryX=0.127;entryY=-0.012;entryDx=0;entryDy=0;entryPerimeter=0;exitX=0;exitY=0.25;exitDx=0;exitDy=0;exitPerimeter=0;" edge="1" parent="1" source="YsSx6Xcz3rXyTNoQ9fx8-18" target="YsSx6Xcz3rXyTNoQ9fx8-11">
          <mxGeometry relative="1" as="geometry">
            <mxPoint x="210" y="296.57142857142867" as="sourcePoint" />
            <Array as="points">
              <mxPoint x="240" y="297" />
              <mxPoint x="172" y="297" />
            </Array>
          </mxGeometry>
        </mxCell>
        <mxCell id="YsSx6Xcz3rXyTNoQ9fx8-15" value="shared storage" style="edgeLabel;html=1;align=center;verticalAlign=middle;resizable=0;points=[];" vertex="1" connectable="0" parent="YsSx6Xcz3rXyTNoQ9fx8-14">
          <mxGeometry x="0.4432" relative="1" as="geometry">
            <mxPoint as="offset" />
          </mxGeometry>
        </mxCell>
        <mxCell id="YsSx6Xcz3rXyTNoQ9fx8-2" value="HeadNode" style="text;html=1;strokeColor=none;fillColor=none;align=center;verticalAlign=middle;whiteSpace=wrap;rounded=0;" vertex="1" parent="1">
          <mxGeometry x="218.25" y="360" width="60" height="30" as="geometry" />
        </mxCell>
        <mxCell id="YsSx6Xcz3rXyTNoQ9fx8-16" style="edgeStyle=orthogonalEdgeStyle;rounded=0;orthogonalLoop=1;jettySize=auto;html=1;entryX=0.5;entryY=0;entryDx=0;entryDy=0;entryPerimeter=0;" edge="1" parent="1" source="YsSx6Xcz3rXyTNoQ9fx8-3" target="YsSx6Xcz3rXyTNoQ9fx8-18">
          <mxGeometry relative="1" as="geometry">
            <mxPoint x="248.28571428571445" y="250" as="targetPoint" />
          </mxGeometry>
        </mxCell>
        <mxCell id="YsSx6Xcz3rXyTNoQ9fx8-17" value="execute the jobs" style="edgeLabel;html=1;align=center;verticalAlign=middle;resizable=0;points=[];" vertex="1" connectable="0" parent="YsSx6Xcz3rXyTNoQ9fx8-16">
          <mxGeometry x="0.1442" y="2" relative="1" as="geometry">
            <mxPoint x="-2" y="33" as="offset" />
          </mxGeometry>
        </mxCell>
        <mxCell id="YsSx6Xcz3rXyTNoQ9fx8-3" value="" style="sketch=0;outlineConnect=0;fontColor=#232F3E;gradientColor=none;fillColor=#232F3D;strokeColor=none;dashed=0;verticalLabelPosition=bottom;verticalAlign=top;align=center;html=1;fontSize=12;fontStyle=0;aspect=fixed;pointerEvents=1;shape=mxgraph.aws4.users;" vertex="1" parent="1">
          <mxGeometry x="90" y="90" width="60" height="60" as="geometry" />
        </mxCell>
        <mxCell id="YsSx6Xcz3rXyTNoQ9fx8-13" value="" style="group" vertex="1" connectable="0" parent="1">
          <mxGeometry x="130" y="530" width="330" height="160" as="geometry" />
        </mxCell>
        <mxCell id="YsSx6Xcz3rXyTNoQ9fx8-11" value="" style="rounded=0;whiteSpace=wrap;html=1;" vertex="1" parent="YsSx6Xcz3rXyTNoQ9fx8-13">
          <mxGeometry width="330" height="160" as="geometry" />
        </mxCell>
        <mxCell id="YsSx6Xcz3rXyTNoQ9fx8-7" value="" style="sketch=0;points=[[0,0,0],[0.25,0,0],[0.5,0,0],[0.75,0,0],[1,0,0],[0,1,0],[0.25,1,0],[0.5,1,0],[0.75,1,0],[1,1,0],[0,0.25,0],[0,0.5,0],[0,0.75,0],[1,0.25,0],[1,0.5,0],[1,0.75,0]];outlineConnect=0;fontColor=#232F3E;gradientColor=#60A337;gradientDirection=north;fillColor=#277116;strokeColor=#ffffff;dashed=0;verticalLabelPosition=bottom;verticalAlign=top;align=center;html=1;fontSize=12;fontStyle=0;aspect=fixed;shape=mxgraph.aws4.resourceIcon;resIcon=mxgraph.aws4.efs_standard;" vertex="1" parent="YsSx6Xcz3rXyTNoQ9fx8-13">
          <mxGeometry x="148.25" y="30" width="78" height="78" as="geometry" />
        </mxCell>
        <mxCell id="YsSx6Xcz3rXyTNoQ9fx8-8" value="" style="outlineConnect=0;dashed=0;verticalLabelPosition=bottom;verticalAlign=top;align=center;html=1;shape=mxgraph.aws3.efs;fillColor=#E05243;gradientColor=none;" vertex="1" parent="YsSx6Xcz3rXyTNoQ9fx8-13">
          <mxGeometry x="40" y="22.5" width="76.5" height="93" as="geometry" />
        </mxCell>
        <mxCell id="YsSx6Xcz3rXyTNoQ9fx8-9" value="EBS" style="text;html=1;strokeColor=none;fillColor=none;align=center;verticalAlign=middle;whiteSpace=wrap;rounded=0;" vertex="1" parent="YsSx6Xcz3rXyTNoQ9fx8-13">
          <mxGeometry x="157.25" y="115.5" width="60" height="30" as="geometry" />
        </mxCell>
        <mxCell id="YsSx6Xcz3rXyTNoQ9fx8-10" value="EFS" style="text;html=1;strokeColor=none;fillColor=none;align=center;verticalAlign=middle;whiteSpace=wrap;rounded=0;" vertex="1" parent="YsSx6Xcz3rXyTNoQ9fx8-13">
          <mxGeometry x="48.25" y="125.5" width="60" height="30" as="geometry" />
        </mxCell>
        <mxCell id="YsSx6Xcz3rXyTNoQ9fx8-12" value="..." style="text;html=1;strokeColor=none;fillColor=none;align=center;verticalAlign=middle;whiteSpace=wrap;rounded=0;" vertex="1" parent="YsSx6Xcz3rXyTNoQ9fx8-13">
          <mxGeometry x="250" y="54" width="60" height="30" as="geometry" />
        </mxCell>
        <mxCell id="YsSx6Xcz3rXyTNoQ9fx8-31" style="edgeStyle=orthogonalEdgeStyle;rounded=0;orthogonalLoop=1;jettySize=auto;html=1;entryX=0;entryY=0.5;entryDx=0;entryDy=0;" edge="1" parent="1" source="YsSx6Xcz3rXyTNoQ9fx8-18" target="YsSx6Xcz3rXyTNoQ9fx8-27">
          <mxGeometry relative="1" as="geometry" />
        </mxCell>
        <mxCell id="YsSx6Xcz3rXyTNoQ9fx8-32" style="edgeStyle=orthogonalEdgeStyle;rounded=0;orthogonalLoop=1;jettySize=auto;html=1;entryX=0.003;entryY=0.609;entryDx=0;entryDy=0;entryPerimeter=0;strokeColor=default;jumpStyle=none;" edge="1" parent="1" source="YsSx6Xcz3rXyTNoQ9fx8-18" target="YsSx6Xcz3rXyTNoQ9fx8-28">
          <mxGeometry relative="1" as="geometry" />
        </mxCell>
        <mxCell id="YsSx6Xcz3rXyTNoQ9fx8-18" value="" style="sketch=0;points=[[0,0,0],[0.25,0,0],[0.5,0,0],[0.75,0,0],[1,0,0],[0,1,0],[0.25,1,0],[0.5,1,0],[0.75,1,0],[1,1,0],[0,0.25,0],[0,0.5,0],[0,0.75,0],[1,0.25,0],[1,0.5,0],[1,0.75,0]];outlineConnect=0;fontColor=#232F3E;gradientColor=#F78E04;gradientDirection=north;fillColor=#D05C17;strokeColor=#ffffff;dashed=0;verticalLabelPosition=bottom;verticalAlign=top;align=center;html=1;fontSize=12;fontStyle=0;aspect=fixed;shape=mxgraph.aws4.resourceIcon;resIcon=mxgraph.aws4.ec2;" vertex="1" parent="1">
          <mxGeometry x="204.25" y="260" width="88" height="88" as="geometry" />
        </mxCell>
        <mxCell id="YsSx6Xcz3rXyTNoQ9fx8-19" value="" style="sketch=0;points=[[0,0,0],[0.25,0,0],[0.5,0,0],[0.75,0,0],[1,0,0],[0,1,0],[0.25,1,0],[0.5,1,0],[0.75,1,0],[1,1,0],[0,0.25,0],[0,0.5,0],[0,0.75,0],[1,0.25,0],[1,0.5,0],[1,0.75,0]];outlineConnect=0;fontColor=#232F3E;gradientColor=#F78E04;gradientDirection=north;fillColor=#D05C17;strokeColor=#ffffff;dashed=0;verticalLabelPosition=bottom;verticalAlign=top;align=center;html=1;fontSize=12;fontStyle=0;aspect=fixed;shape=mxgraph.aws4.resourceIcon;resIcon=mxgraph.aws4.ec2;" vertex="1" parent="1">
          <mxGeometry x="520" y="180" width="78" height="78" as="geometry" />
        </mxCell>
        <mxCell id="YsSx6Xcz3rXyTNoQ9fx8-20" value="" style="sketch=0;points=[[0,0,0],[0.25,0,0],[0.5,0,0],[0.75,0,0],[1,0,0],[0,1,0],[0.25,1,0],[0.5,1,0],[0.75,1,0],[1,1,0],[0,0.25,0],[0,0.5,0],[0,0.75,0],[1,0.25,0],[1,0.5,0],[1,0.75,0]];outlineConnect=0;fontColor=#232F3E;gradientColor=#F78E04;gradientDirection=north;fillColor=#D05C17;strokeColor=#ffffff;dashed=0;verticalLabelPosition=bottom;verticalAlign=top;align=center;html=1;fontSize=12;fontStyle=0;aspect=fixed;shape=mxgraph.aws4.resourceIcon;resIcon=mxgraph.aws4.ec2;" vertex="1" parent="1">
          <mxGeometry x="640" y="180" width="78" height="78" as="geometry" />
        </mxCell>
        <mxCell id="YsSx6Xcz3rXyTNoQ9fx8-21" value="" style="sketch=0;points=[[0,0,0],[0.25,0,0],[0.5,0,0],[0.75,0,0],[1,0,0],[0,1,0],[0.25,1,0],[0.5,1,0],[0.75,1,0],[1,1,0],[0,0.25,0],[0,0.5,0],[0,0.75,0],[1,0.25,0],[1,0.5,0],[1,0.75,0]];outlineConnect=0;fontColor=#232F3E;gradientColor=#F78E04;gradientDirection=north;fillColor=#D05C17;strokeColor=#ffffff;dashed=0;verticalLabelPosition=bottom;verticalAlign=top;align=center;html=1;fontSize=12;fontStyle=0;aspect=fixed;shape=mxgraph.aws4.resourceIcon;resIcon=mxgraph.aws4.ec2;" vertex="1" parent="1">
          <mxGeometry x="760" y="180" width="78" height="78" as="geometry" />
        </mxCell>
        <mxCell id="YsSx6Xcz3rXyTNoQ9fx8-22" value="" style="sketch=0;points=[[0,0,0],[0.25,0,0],[0.5,0,0],[0.75,0,0],[1,0,0],[0,1,0],[0.25,1,0],[0.5,1,0],[0.75,1,0],[1,1,0],[0,0.25,0],[0,0.5,0],[0,0.75,0],[1,0.25,0],[1,0.5,0],[1,0.75,0]];outlineConnect=0;fontColor=#232F3E;gradientColor=#F78E04;gradientDirection=north;fillColor=#D05C17;strokeColor=#ffffff;dashed=0;verticalLabelPosition=bottom;verticalAlign=top;align=center;html=1;fontSize=12;fontStyle=0;aspect=fixed;shape=mxgraph.aws4.resourceIcon;resIcon=mxgraph.aws4.ec2;" vertex="1" parent="1">
          <mxGeometry x="520" y="370" width="78" height="78" as="geometry" />
        </mxCell>
        <mxCell id="YsSx6Xcz3rXyTNoQ9fx8-23" value="" style="sketch=0;points=[[0,0,0],[0.25,0,0],[0.5,0,0],[0.75,0,0],[1,0,0],[0,1,0],[0.25,1,0],[0.5,1,0],[0.75,1,0],[1,1,0],[0,0.25,0],[0,0.5,0],[0,0.75,0],[1,0.25,0],[1,0.5,0],[1,0.75,0]];outlineConnect=0;fontColor=#232F3E;gradientColor=#F78E04;gradientDirection=north;fillColor=#D05C17;strokeColor=#ffffff;dashed=0;verticalLabelPosition=bottom;verticalAlign=top;align=center;html=1;fontSize=12;fontStyle=0;aspect=fixed;shape=mxgraph.aws4.resourceIcon;resIcon=mxgraph.aws4.ec2;" vertex="1" parent="1">
          <mxGeometry x="640" y="370" width="78" height="78" as="geometry" />
        </mxCell>
        <mxCell id="YsSx6Xcz3rXyTNoQ9fx8-24" value="" style="sketch=0;points=[[0,0,0],[0.25,0,0],[0.5,0,0],[0.75,0,0],[1,0,0],[0,1,0],[0.25,1,0],[0.5,1,0],[0.75,1,0],[1,1,0],[0,0.25,0],[0,0.5,0],[0,0.75,0],[1,0.25,0],[1,0.5,0],[1,0.75,0]];outlineConnect=0;fontColor=#232F3E;gradientColor=#F78E04;gradientDirection=north;fillColor=#D05C17;strokeColor=#ffffff;dashed=0;verticalLabelPosition=bottom;verticalAlign=top;align=center;html=1;fontSize=12;fontStyle=0;aspect=fixed;shape=mxgraph.aws4.resourceIcon;resIcon=mxgraph.aws4.ec2;" vertex="1" parent="1">
          <mxGeometry x="760" y="370" width="78" height="78" as="geometry" />
        </mxCell>
        <mxCell id="YsSx6Xcz3rXyTNoQ9fx8-29" value="queue - 01" style="text;html=1;strokeColor=none;fillColor=none;align=center;verticalAlign=middle;whiteSpace=wrap;rounded=0;" vertex="1" parent="1">
          <mxGeometry x="520" y="140" width="60" height="30" as="geometry" />
        </mxCell>
        <mxCell id="YsSx6Xcz3rXyTNoQ9fx8-30" value="queue - 01" style="text;html=1;strokeColor=none;fillColor=none;align=center;verticalAlign=middle;whiteSpace=wrap;rounded=0;" vertex="1" parent="1">
          <mxGeometry x="520" y="320" width="60" height="30" as="geometry" />
        </mxCell>
        <mxCell id="YsSx6Xcz3rXyTNoQ9fx8-33" value="Compute Machine" style="text;html=1;strokeColor=none;fillColor=none;align=center;verticalAlign=middle;whiteSpace=wrap;rounded=0;" vertex="1" parent="1">
          <mxGeometry x="640" y="490" width="60" height="30" as="geometry" />
        </mxCell>
        <mxCell id="YsSx6Xcz3rXyTNoQ9fx8-34" value="Compute Machine" style="text;html=1;strokeColor=none;fillColor=none;align=center;verticalAlign=middle;whiteSpace=wrap;rounded=0;" vertex="1" parent="1">
          <mxGeometry x="649" y="90" width="60" height="30" as="geometry" />
        </mxCell>
      </root>
    </mxGraphModel>
  </diagram>
</mxfile>
